<?xml version="1.0" standalone="no"?>
<!DOCTYPE svg PUBLIC "-//W3C//DTD SVG 20010904//EN"
 "http://www.w3.org/TR/2001/REC-SVG-20010904/DTD/svg10.dtd">
<svg version="1.0" xmlns="http://www.w3.org/2000/svg"
 width="512.000000pt" height="512.000000pt" viewBox="0 0 512.000000 512.000000"
 preserveAspectRatio="xMidYMid meet">

<g transform="translate(0.000000,512.000000) scale(0.100000,-0.100000)"
fill="#000000" stroke="none">
<path d="M2575 5096 c-268 -88 -600 -309 -840 -558 -127 -131 -198 -230 -260
-361 -80 -168 -82 -190 -90 -787 -3 -289 -9 -554 -13 -589 l-7 -64 -550 889
c-302 488 -558 896 -567 906 -24 24 -73 23 -98 -2 -32 -32 -25 -76 22 -150
l41 -65 -17 -80 c-59 -275 -81 -554 -56 -724 51 -347 311 -912 780 -1692 l148
-245 -34 -114 c-57 -186 -88 -353 -97 -519 -2 -44 -2 -45 -72 -80 -80 -41
-118 -66 -194 -130 -167 -141 -291 -402 -291 -613 0 -67 3 -80 22 -98 28 -26
68 -26 96 0 22 21 27 41 37 147 7 78 36 168 83 258 44 84 180 226 261 272 l55
31 22 -106 c35 -175 98 -320 207 -479 102 -150 180 -183 217 -94 14 35 9 46
-68 147 -67 88 -154 263 -188 379 -22 74 -27 117 -32 243 -8 265 27 443 168
837 145 407 201 624 240 931 11 85 20 157 20 160 0 3 17 -16 39 -43 21 -27 59
-67 85 -90 l46 -41 0 -906 c0 -893 0 -906 20 -926 27 -27 81 -26 106 1 16 18
20 42 24 152 l5 131 129 42 c88 28 135 48 148 64 16 19 18 42 18 186 0 90 3
164 6 164 3 0 18 -8 32 -19 15 -10 45 -28 68 -39 l41 -21 6 -88 c8 -106 43
-252 86 -353 39 -92 125 -220 185 -280 l46 -44 0 -294 0 -293 25 -24 c31 -32
69 -32 100 0 l25 24 0 292 0 291 55 59 c73 80 109 133 160 242 52 108 92 260
103 381 l7 87 73 40 72 40 0 -165 c0 -141 2 -167 18 -185 11 -14 63 -37 147
-65 l130 -42 5 -485 c3 -266 9 -492 14 -502 19 -40 70 -48 110 -16 l26 20 0
1261 0 1261 63 66 c34 36 72 79 84 96 l21 30 6 -35 c3 -19 8 -62 11 -95 13
-127 48 -317 90 -480 46 -179 156 -510 178 -532 7 -7 27 -15 44 -19 26 -5 37
-1 57 19 14 15 26 36 26 47 0 12 -27 101 -61 198 -177 517 -218 838 -219 1687
0 337 -2 378 -20 455 -25 103 -90 243 -162 347 -68 99 -246 283 -369 383 -193
155 -445 303 -615 359 -109 37 -146 38 -239 7z m197 -152 c81 -29 161 -68 256
-122 l63 -37 -3 -500 c-4 -563 -3 -548 -83 -710 -24 -49 -64 -113 -89 -141
l-45 -51 -92 -13 c-75 -11 -109 -11 -183 -1 -105 15 -121 25 -192 132 -92 139
-124 272 -124 515 0 162 0 165 -25 189 -30 31 -77 33 -105 5 -19 -19 -20 -33
-20 -204 0 -117 5 -211 14 -258 17 -89 57 -204 91 -266 14 -25 23 -47 21 -49
-3 -3 -48 5 -102 17 -370 85 -614 242 -614 397 0 112 83 316 182 448 68 91
222 245 323 325 l80 63 3 -131 c3 -128 3 -132 29 -151 32 -26 64 -27 94 -2 23
19 24 24 27 203 l3 185 62 35 c124 72 295 146 339 148 9 0 50 -12 90 -26z
m599 -362 c235 -197 393 -419 443 -623 35 -142 12 -214 -96 -300 -50 -39 -188
-112 -290 -152 -45 -18 -68 -47 -68 -87 0 -14 -12 -21 -53 -30 -53 -12 -53
-12 -85 20 -29 29 -36 31 -72 25 -22 -4 -40 -5 -40 -2 0 2 11 25 25 50 14 24
37 78 51 118 50 144 54 188 54 650 0 406 1 429 18 420 9 -5 60 -45 113 -89z
m-2409 -1478 c284 -458 371 -606 369 -627 -2 -34 -49 -259 -60 -289 -6 -18
-14 -10 -56 58 -110 176 -302 521 -395 709 -161 327 -240 554 -240 693 0 36 2
63 5 60 3 -3 172 -274 377 -604z m1768 -314 c11 -6 36 -54 60 -117 l41 -107
-19 -25 c-63 -84 -191 -84 -254 0 l-19 25 41 107 c23 59 49 111 58 117 22 12
68 13 92 0z m-263 -374 c21 -20 63 -49 93 -64 72 -35 171 -37 242 -5 56 26
141 102 158 142 l11 29 40 -20 c137 -66 318 -74 497 -22 l22 6 0 -239 0 -240
-51 -74 c-207 -297 -603 -511 -869 -470 -260 41 -551 231 -718 470 l-52 74 0
244 c0 229 1 243 18 235 36 -19 164 -42 235 -42 78 0 198 26 263 57 l39 19 17
-31 c9 -17 34 -48 55 -69z m-489 -1000 l-3 -189 -35 -12 c-20 -7 -50 -16 -68
-20 l-32 -7 0 278 0 278 70 -69 70 -70 -2 -189z m1548 -223 c-2 -2 -33 4 -67
14 l-64 19 -3 189 -2 189 67 68 68 69 3 -272 c1 -150 0 -274 -2 -276z m-1006
126 c25 -7 99 -13 165 -13 66 0 140 6 165 13 25 7 52 14 61 17 14 4 16 -2 12
-43 -9 -84 -51 -232 -87 -306 -38 -79 -131 -207 -151 -207 -11 0 -81 84 -118
142 -49 78 -103 248 -121 381 -4 32 -2 37 12 33 9 -3 37 -10 62 -17z"/>
<path d="M2180 2260 c-24 -24 -27 -82 -4 -105 47 -47 196 -97 344 -115 218
-26 471 5 609 75 66 33 81 50 81 91 0 67 -61 94 -124 55 -53 -32 -162 -60
-283 -72 -189 -20 -422 13 -519 72 -40 25 -79 24 -104 -1z"/>
<path d="M4225 1441 c-21 -24 -18 -56 19 -226 48 -220 51 -454 7 -626 -27
-106 -124 -303 -193 -393 -77 -100 -82 -112 -68 -147 25 -59 73 -64 129 -14
127 115 276 429 307 647 l6 48 51 -28 c28 -15 92 -67 143 -117 78 -77 98 -104
138 -185 46 -94 76 -205 76 -280 0 -100 69 -154 128 -100 50 47 17 271 -63
436 -87 180 -217 312 -400 405 l-70 36 -7 101 c-12 182 -64 414 -100 445 -27
23 -80 22 -103 -2z"/>
<path d="M1740 563 c-50 -18 -50 -21 -50 -279 l0 -243 26 -20 c43 -34 86 -26
109 20 12 22 15 75 15 249 l0 222 -29 29 c-29 29 -42 33 -71 22z"/>
</g>
</svg>
