<?xml version="1.0" standalone="no"?>
<!DOCTYPE svg PUBLIC "-//W3C//DTD SVG 20010904//EN"
 "http://www.w3.org/TR/2001/REC-SVG-20010904/DTD/svg10.dtd">
<svg version="1.0" xmlns="http://www.w3.org/2000/svg"
 width="512.000000pt" height="512.000000pt" viewBox="0 0 512.000000 512.000000"
 preserveAspectRatio="xMidYMid meet">

<g transform="translate(0.000000,512.000000) scale(0.100000,-0.100000)"
fill="#000000" stroke="none">
<path d="M282 5097 c-26 -27 -27 -60 -7 -154 97 -456 522 -807 1074 -887 82
-11 86 -13 89 -39 l3 -27 -106 0 c-116 0 -160 -12 -209 -58 -99 -93 -83 -266
31 -341 26 -17 56 -31 67 -31 45 0 46 -14 6 -73 -90 -133 -73 -309 40 -426 44
-45 117 -86 173 -96 l37 -7 0 -302 c0 -165 5 -341 11 -391 20 -166 93 -349
189 -476 27 -35 49 -67 50 -70 0 -3 -73 -11 -162 -18 -417 -31 -561 -53 -703
-110 -236 -95 -453 -311 -539 -540 -60 -159 -60 -153 -64 -601 l-3 -415 22
-17 c20 -17 143 -18 2280 -18 2246 0 2259 0 2279 20 19 19 20 33 20 400 0 417
-4 457 -61 615 -78 214 -251 408 -462 517 -81 43 -125 48 -152 18 -20 -23 -23
-63 -5 -85 7 -9 47 -33 89 -55 42 -22 92 -53 111 -69 l34 -28 -142 -219 -142
-219 0 -377 0 -378 -750 0 -750 0 0 106 c0 81 3 105 13 101 6 -3 54 -24 105
-48 104 -47 136 -47 160 3 22 47 2 73 -93 120 -47 23 -85 45 -85 48 0 3 38 23
83 45 97 47 118 75 92 125 -26 51 -55 50 -172 -8 l-103 -52 0 145 0 145 105
-52 c117 -59 147 -59 174 -3 22 46 0 73 -96 120 -46 22 -83 42 -83 45 0 3 38
25 85 48 95 47 115 73 93 120 -25 51 -56 51 -167 -1 -56 -26 -103 -47 -106
-47 -3 0 -5 46 -5 103 l0 104 81 12 c112 17 199 45 301 98 87 44 193 119 235
165 l23 24 81 -20 c93 -23 128 -16 143 27 14 40 -3 80 -39 91 -68 20 -68 15
-12 91 57 77 106 171 138 262 47 137 51 172 56 545 l5 357 31 7 c53 11 126 53
167 95 113 117 130 293 40 427 -41 60 -39 69 16 71 11 1 41 15 67 32 116 77
130 256 26 343 -55 47 -89 56 -204 56 l-106 0 3 27 c3 26 6 28 91 40 550 79
976 431 1072 886 20 94 19 133 -5 157 -39 39 -67 27 -160 -68 -229 -237 -526
-362 -900 -378 l-125 -6 -43 92 c-36 77 -58 106 -125 175 -92 92 -171 141
-287 177 -75 23 -76 23 -640 23 -564 0 -565 0 -640 -23 -116 -36 -195 -85
-287 -177 -67 -68 -89 -99 -125 -173 l-43 -91 -86 -1 c-70 0 -89 -3 -102 -18
-10 -10 -17 -24 -17 -30 0 -15 -48 -15 -126 -1 -111 20 -134 28 -134 50 0 30
-40 64 -101 84 -155 51 -324 162 -464 304 -87 89 -114 99 -153 58z m2058 -612
l0 -495 -381 0 -381 0 4 288 c4 283 4 288 30 355 50 124 144 229 258 287 89
45 163 58 328 59 l142 1 0 -495z m300 5 l0 -490 -80 0 -80 0 0 490 0 490 80 0
80 0 0 -490z m466 479 c180 -33 334 -163 405 -344 22 -57 23 -74 27 -347 l4
-288 -381 0 -381 0 0 495 0 495 133 0 c73 0 160 -5 193 -11z m-1156 -1448 c0
-89 74 -162 164 -163 89 -2 166 68 169 151 2 38 4 41 30 41 l27 0 0 -214 c0
-246 -10 -219 113 -315 101 -79 113 -79 214 0 123 96 113 69 113 315 l0 214
30 0 c21 0 28 -4 24 -14 -10 -27 17 -96 51 -131 19 -19 53 -39 75 -45 100 -27
210 56 210 160 0 29 2 30 45 30 l45 0 0 -405 c0 -223 -2 -405 -4 -405 -2 0
-35 15 -72 34 -173 85 -270 99 -669 94 -254 -3 -323 -7 -380 -22 -73 -18 -206
-70 -240 -93 -11 -7 -23 -13 -27 -13 -5 0 -8 182 -8 405 l0 405 45 0 c43 0 45
-1 45 -29z m690 -154 l0 -184 -40 -32 -40 -32 -40 32 -40 32 0 184 0 183 80 0
80 0 0 -183z m-1160 -68 l0 -200 -22 6 c-47 15 -89 48 -115 93 -58 98 -23 227
76 279 24 13 48 23 53 23 4 0 8 -90 8 -201z m2242 159 c37 -26 78 -110 78
-159 0 -73 -62 -161 -134 -189 l-26 -10 0 200 0 200 26 -10 c15 -6 40 -20 56
-32z m-1846 -1879 c37 -42 146 -118 233 -163 96 -50 226 -91 320 -102 l61 -7
0 -103 c0 -57 -3 -104 -7 -104 -5 0 -52 21 -106 47 -108 52 -140 52 -165 1
-22 -47 -2 -73 93 -120 47 -23 85 -45 85 -48 0 -4 -37 -24 -82 -46 -96 -45
-119 -74 -96 -121 7 -15 26 -32 41 -37 24 -9 42 -3 132 42 l105 52 0 -145 0
-144 -103 50 c-117 57 -147 58 -173 8 -25 -49 -3 -77 93 -124 46 -22 83 -42
83 -45 0 -3 -38 -25 -85 -48 -95 -47 -115 -73 -93 -120 24 -50 57 -51 160 -3
51 23 99 45 106 48 9 4 12 -20 12 -101 l0 -106 -750 0 -750 0 0 377 0 377
-142 219 -142 220 35 29 c18 16 75 49 124 73 133 65 278 95 570 115 234 17
338 27 365 39 38 15 55 13 76 -10z m-1148 -538 l122 -190 0 -355 0 -356 -225
0 -225 0 0 329 c0 314 1 333 24 423 13 52 39 123 56 159 34 67 108 179 119
179 3 0 61 -85 129 -189z m3839 132 c62 -89 103 -177 129 -281 23 -90 24 -109
24 -423 l0 -329 -225 0 -225 0 0 356 0 355 123 190 c67 104 125 189 128 189 3
0 24 -26 46 -57z"/>
<path d="M3731 1661 c-13 -13 -21 -34 -21 -56 0 -45 25 -61 112 -70 63 -6 69
-5 93 19 31 31 32 57 3 90 -19 22 -35 27 -94 32 -64 6 -74 4 -93 -15z"/>
</g>
</svg>
