<?xml version="1.0" standalone="no"?>
<!DOCTYPE svg PUBLIC "-//W3C//DTD SVG 20010904//EN"
 "http://www.w3.org/TR/2001/REC-SVG-20010904/DTD/svg10.dtd">
<svg version="1.0" xmlns="http://www.w3.org/2000/svg"
 width="512.000000pt" height="512.000000pt" viewBox="0 0 512.000000 512.000000"
 preserveAspectRatio="xMidYMid meet">

<g transform="translate(0.000000,512.000000) scale(0.100000,-0.100000)"
fill="#000000" stroke="none">
<path d="M2090 5111 c-110 -34 -132 -67 -299 -443 -139 -315 -145 -325 -178
-338 -47 -16 -109 -74 -136 -124 -21 -39 -22 -55 -25 -332 l-3 -292 -44 -5
c-107 -12 -225 -107 -264 -213 -18 -47 -21 -78 -21 -214 l0 -160 -90 0 c-156
0 -180 -23 -180 -175 0 -209 57 -319 204 -390 l71 -35 -146 0 c-81 0 -170 -5
-200 -10 -156 -30 -278 -136 -330 -288 -18 -53 -19 -99 -19 -1043 0 -543 3
-995 6 -1004 18 -47 -77 -45 2124 -45 2201 0 2106 -2 2124 45 3 9 6 459 6 999
0 874 -2 988 -16 1037 -21 72 -53 125 -109 179 l-45 44 0 1169 0 1168 -25 24
c-24 25 -25 25 -227 25 -144 -1 -208 -4 -219 -13 -30 -23 -39 -56 -39 -146 l0
-91 -85 0 -85 0 0 -85 0 -85 85 0 85 0 0 -640 0 -640 -40 0 -40 0 0 118 c0
148 -14 233 -48 295 -33 61 -109 130 -167 152 l-44 17 -3 297 c-3 281 -4 298
-25 336 -26 50 -76 97 -128 123 l-40 20 -89 268 c-119 360 -123 371 -164 416
-66 73 -97 83 -262 83 -163 0 -192 -9 -260 -80 -52 -55 -96 -78 -128 -70 -15
3 -53 33 -84 65 -73 75 -119 90 -267 89 -58 0 -117 -4 -131 -8z m295 -223 c75
-80 103 -93 200 -93 94 0 119 11 205 90 59 54 120 79 142 57 5 -5 52 -138 103
-296 l93 -286 -639 0 c-352 0 -639 2 -639 5 0 14 235 533 249 549 26 30 51 36
144 33 l88 -3 54 -56z m1965 -1433 l0 -1065 -85 0 -85 0 0 1065 0 1065 85 0
85 0 0 -1065z m-2560 -40 l0 -165 -56 0 c-30 0 -64 4 -74 10 -30 16 -40 66
-40 196 l0 124 85 0 85 0 0 -165z m340 -130 c0 -324 5 -356 55 -375 15 -6 85
-10 156 -10 l129 0 0 -54 c0 -106 -18 -116 -205 -116 l-135 0 0 -86 0 -86 168
4 c162 3 168 4 215 31 l47 28 48 -28 c46 -27 52 -28 215 -31 l167 -4 0 86 0
86 -135 0 c-187 0 -205 10 -205 116 l0 54 129 0 c71 0 141 4 156 10 50 19 55
51 55 375 l0 295 86 0 85 0 -3 -517 c-4 -508 -4 -519 -27 -588 -113 -344 -484
-516 -806 -374 -163 72 -280 202 -336 374 -23 69 -23 80 -27 588 l-3 517 85 0
86 0 0 -295z m340 215 l0 -80 -40 0 -40 0 0 -90 0 -90 90 0 c155 0 170 19 170
216 l0 124 80 0 80 0 0 -255 0 -255 -250 0 -250 0 0 255 0 255 80 0 80 0 0
-80z m1030 -44 c0 -130 -10 -180 -40 -196 -10 -6 -44 -10 -74 -10 l-56 0 0
165 0 165 85 0 85 0 0 -124z m-2048 -123 c3 -47 12 -92 22 -113 48 -93 144
-150 255 -150 l59 0 4 -277 c4 -223 8 -288 21 -328 9 -27 17 -56 17 -62 0 -10
-55 -13 -244 -13 -231 0 -245 1 -270 21 -17 13 -28 34 -32 60 -8 50 -46 89
-88 89 -47 1 -110 33 -137 71 -19 26 -25 50 -27 105 l-4 72 98 4 c99 4 135 16
151 48 4 8 10 112 13 231 5 215 5 216 32 251 27 35 79 67 109 68 13 0 17 -14
21 -77z m2265 10 l28 -36 5 -218 5 -219 27 -27 c26 -25 35 -28 128 -31 l100
-4 0 -62 c0 -105 -50 -167 -148 -182 -56 -8 -102 -49 -102 -89 0 -16 -12 -38
-29 -56 l-29 -29 -206 0 c-158 0 -206 3 -206 13 0 6 8 35 17 62 13 40 17 105
21 328 l4 277 59 0 c110 0 208 57 254 150 10 19 20 62 23 97 2 35 8 63 13 63
4 0 21 -17 36 -37z m293 -933 c0 -17 -7 -20 -47 -20 l-48 1 40 18 c52 25 55
25 55 1z m-2650 -1220 l0 -1020 -380 0 -380 0 0 908 c0 996 -2 970 60 1044 16
20 53 48 82 62 l52 26 283 0 283 0 0 -1020z m3018 994 c29 -14 66 -42 82 -62
52 -63 60 -110 60 -359 l0 -223 -190 0 -190 0 -120 160 c-66 87 -129 164 -139
170 -11 5 -42 10 -70 10 l-51 0 0 165 0 165 283 0 283 0 52 -26z m-1748 -309
c0 -10 -65 -135 -70 -135 -5 0 -70 125 -70 135 0 3 32 5 70 5 39 0 70 -2 70
-5z m1230 -255 l61 -80 -81 0 -80 0 0 80 c0 73 2 80 20 80 12 0 40 -28 80 -80z
m-1300 -425 c39 0 46 7 275 235 l235 235 0 -403 0 -402 -510 0 -510 0 0 402 0
403 235 -235 c229 -228 236 -235 275 -235z m1960 -430 l0 -595 -380 0 -380 0
0 85 0 85 125 0 125 0 0 85 0 85 -125 0 -125 0 0 85 0 85 125 0 125 0 0 90 0
90 -125 0 -125 0 0 80 0 80 125 0 125 0 0 90 0 90 -125 0 -125 0 0 80 0 80
380 0 380 0 0 -595z"/>
</g>
</svg>
