<?xml version="1.0" standalone="no"?>
<!DOCTYPE svg PUBLIC "-//W3C//DTD SVG 20010904//EN"
 "http://www.w3.org/TR/2001/REC-SVG-20010904/DTD/svg10.dtd">
<svg version="1.0" xmlns="http://www.w3.org/2000/svg"
 width="512.000000pt" height="512.000000pt" viewBox="0 0 512.000000 512.000000"
 preserveAspectRatio="xMidYMid meet">

<g transform="translate(0.000000,512.000000) scale(0.100000,-0.100000)"
fill="#000000" stroke="none">
<path d="M2779 5111 c-60 -20 -155 -78 -242 -151 -124 -104 -324 -313 -420
-438 -226 -295 -398 -650 -477 -982 -18 -74 -34 -141 -36 -147 -2 -10 -36 -13
-122 -13 -128 0 -168 -9 -221 -48 -62 -46 -90 -158 -58 -235 21 -48 90 -106
137 -113 22 -4 40 -9 40 -13 0 -3 -16 -73 -35 -156 -84 -364 -154 -934 -155
-1261 l0 -80 -82 -57 c-187 -127 -263 -224 -409 -522 -141 -289 -335 -794
-323 -841 14 -56 -13 -54 774 -54 795 1 752 -3 770 61 8 28 7 39 -9 59 l-18
25 -277 3 -276 2 0 186 c0 183 0 185 -25 209 -26 27 -70 32 -96 12 -34 -26
-39 -54 -39 -231 l0 -176 -311 0 -310 0 6 23 c4 12 49 128 101 258 213 536
327 725 516 853 l56 38 34 -25 c36 -28 309 -158 428 -205 141 -55 357 -110
504 -128 49 -5 71 -15 119 -51 75 -55 197 -113 237 -113 40 0 161 58 236 113
53 38 68 44 149 55 167 24 306 62 335 91 15 14 29 32 31 39 6 17 122 44 181
43 37 -1 65 7 125 38 43 21 103 49 133 61 30 13 73 36 94 51 l39 28 60 -42
c99 -69 144 -114 201 -200 96 -146 244 -463 360 -774 24 -65 47 -126 51 -136
7 -16 -12 -17 -304 -17 l-311 0 0 176 c0 177 -5 205 -39 231 -26 20 -70 15
-96 -12 -25 -24 -25 -26 -25 -209 l0 -186 -836 -2 -837 -3 -18 -25 c-16 -20
-17 -31 -9 -59 18 -65 -78 -60 1330 -61 1398 0 1320 -3 1334 54 12 47 -182
552 -323 841 -146 298 -222 395 -408 522 l-83 57 0 70 c0 329 -72 914 -156
1274 -19 80 -34 149 -34 153 0 3 18 9 40 13 51 8 124 72 141 123 18 57 7 137
-27 185 -43 62 -91 82 -200 86 l-91 4 -32 82 c-38 102 -110 223 -204 344 -345
443 -340 431 -331 802 5 158 3 255 -5 295 -16 86 -55 160 -98 186 -38 24 -112
33 -154 20z m88 -188 c17 -41 21 -160 15 -438 -6 -269 37 -367 310 -706 113
-140 162 -215 209 -313 l38 -81 -530 -5 -531 -5 -20 -25 c-24 -30 -18 -77 13
-102 20 -17 68 -18 697 -18 614 0 677 -1 694 -17 21 -18 24 -53 6 -71 -17 -17
-2399 -17 -2416 0 -17 17 -15 54 4 72 13 14 64 16 400 16 232 0 393 4 404 10
29 16 42 67 25 100 -8 15 -22 30 -30 34 -9 3 -102 6 -206 6 l-189 0 6 28 c88
388 247 728 482 1032 77 100 308 338 402 415 79 65 147 105 178 105 17 0 27
-10 39 -37z m-1205 -2260 c4 -274 6 -315 24 -368 l20 -60 -31 -15 c-16 -8 -34
-28 -40 -43 -14 -43 32 -123 117 -201 59 -55 69 -70 77 -111 l9 -47 -102 -47
c-55 -27 -166 -83 -245 -125 -79 -42 -145 -76 -146 -74 -6 5 15 319 30 473 29
284 91 642 146 845 l21 80 58 0 58 0 4 -307z m1646 20 c-4 -266 -6 -293 -27
-358 -13 -38 -26 -74 -31 -78 -12 -13 -150 11 -265 45 -115 34 -239 90 -341
154 -40 24 -77 44 -84 44 -7 0 -40 -17 -74 -39 -97 -61 -199 -109 -310 -146
-122 -41 -292 -73 -308 -57 -6 6 -19 41 -31 79 -18 60 -21 101 -25 356 l-4
287 752 0 752 0 -4 -287z m306 140 c85 -353 131 -694 160 -1190 2 -35 2 -63 1
-63 -2 0 -68 35 -147 77 -78 42 -189 98 -244 124 l-102 48 9 46 c8 41 18 56
77 111 85 78 131 158 117 201 -6 15 -24 35 -40 43 l-30 15 19 65 c17 56 20
106 23 368 l5 302 58 0 58 0 36 -147z m-933 -572 c63 -33 155 -73 205 -89 94
-32 283 -72 335 -72 37 0 37 -13 0 -40 -78 -55 -209 -68 -340 -36 -41 11 -126
45 -190 77 -63 33 -122 59 -131 59 -9 0 -68 -26 -131 -59 -222 -112 -391 -126
-527 -41 -45 28 -46 40 -1 40 51 0 232 39 330 71 53 17 145 57 205 89 60 32
114 58 120 59 5 1 62 -26 125 -58z m-20 -315 c139 -66 232 -89 361 -90 65 -1
108 -5 108 -11 0 -24 -51 -207 -80 -290 -84 -236 -218 -426 -370 -524 -105
-68 -114 -70 -184 -33 -220 114 -387 371 -482 742 -13 52 -24 100 -24 105 0 6
43 11 108 11 131 2 226 25 355 88 51 24 97 45 103 45 6 1 54 -19 105 -43z"/>
<path d="M2094 2671 c-37 -22 -59 -77 -49 -121 3 -16 22 -43 41 -60 62 -54
147 -33 180 46 43 103 -75 194 -172 135z"/>
<path d="M2899 2675 c-36 -20 -63 -78 -55 -120 10 -49 66 -95 116 -95 51 0
105 45 114 95 18 95 -88 167 -175 120z"/>
</g>
</svg>
