<?xml version="1.0" standalone="no"?>
<!DOCTYPE svg PUBLIC "-//W3C//DTD SVG 20010904//EN"
 "http://www.w3.org/TR/2001/REC-SVG-20010904/DTD/svg10.dtd">
<svg version="1.0" xmlns="http://www.w3.org/2000/svg"
 width="512.000000pt" height="512.000000pt" viewBox="0 0 512.000000 512.000000"
 preserveAspectRatio="xMidYMid meet">

<g transform="translate(0.000000,512.000000) scale(0.100000,-0.100000)"
fill="#000000" stroke="none">
<path d="M2542 4893 c-22 -20 -112 -221 -112 -251 0 -11 9 -31 20 -45 l20 -25
-43 -98 c-42 -95 -44 -99 -76 -100 -18 -1 -39 -8 -46 -15 -8 -8 -60 -121 -118
-252 l-104 -238 -286 -206 c-300 -214 -312 -227 -288 -279 16 -36 49 -44 184
-44 l122 0 -3 -101 c-5 -118 10 -169 66 -231 45 -50 97 -76 181 -92 l66 -13
-3 -109 c-3 -136 -15 -225 -53 -385 -17 -69 -36 -175 -42 -235 l-12 -108 -150
-23 c-215 -33 -260 -49 -369 -133 l-66 -51 0 104 0 103 146 249 c81 138 155
268 165 290 24 51 24 111 1 155 -35 70 -372 510 -404 530 -18 11 -49 23 -68
26 -68 13 -114 -10 -348 -179 -291 -208 -272 -177 -272 -464 0 -200 1 -214 20
-233 23 -23 68 -26 92 -7 8 6 59 80 111 162 l96 150 90 49 c49 26 93 48 96 48
4 0 38 -42 75 -92 l67 -92 -129 -187 c-71 -102 -137 -202 -146 -221 -15 -32
-17 -124 -20 -992 -1 -527 1 -972 6 -990 10 -40 48 -64 86 -54 58 14 56 -14
56 1030 l0 954 150 216 c105 152 150 225 150 245 0 19 -32 71 -105 172 -112
154 -136 179 -167 179 -11 0 -85 -37 -165 -81 -132 -75 -148 -87 -181 -137
l-37 -56 -3 49 c-2 27 -1 59 2 71 8 30 411 318 446 319 21 0 52 -36 197 -230
95 -126 175 -240 179 -251 4 -16 -37 -95 -160 -305 l-166 -284 0 -926 0 -926
23 -21 c13 -12 35 -22 48 -22 26 0 69 37 69 58 0 9 57 12 220 12 211 0 220 -1
220 -19 0 -24 36 -51 66 -51 12 0 32 9 45 19 l24 19 6 319 c6 281 9 327 28
397 38 144 83 218 177 296 47 39 213 130 238 130 7 0 30 -37 51 -82 22 -45 68
-131 102 -191 l62 -110 -26 -44 c-30 -52 -41 -147 -24 -210 27 -101 127 -182
233 -190 115 -9 203 35 263 132 27 43 30 57 30 130 0 68 -4 89 -27 132 l-26
52 61 109 c34 59 80 145 102 190 21 45 44 82 50 82 15 0 162 -73 199 -99 62
-42 137 -127 166 -185 63 -130 72 -189 79 -539 l6 -319 24 -19 c13 -10 34 -19
47 -19 27 0 64 32 64 55 0 13 31 15 220 15 176 0 220 -3 220 -13 0 -22 44 -57
71 -57 14 0 35 10 47 23 l22 23 0 540 0 541 -23 21 c-13 12 -29 22 -35 22 -8
0 -12 20 -13 58 0 31 -4 77 -7 101 -6 40 -4 47 21 72 15 15 27 33 27 41 0 29
-61 140 -101 183 -43 47 -61 53 -102 34 -20 -9 -31 -6 -72 20 -26 17 -70 38
-96 46 -39 13 -49 21 -49 39 0 41 -30 55 -155 74 l-120 18 -12 108 c-6 60 -25
166 -42 235 -38 162 -51 250 -54 385 l-2 109 66 13 c84 16 136 42 181 92 56
62 71 113 66 231 l-3 101 122 0 c135 0 168 8 184 44 24 53 12 65 -288 280
l-287 207 -72 165 c-40 90 -75 173 -79 183 -5 15 56 59 355 256 199 131 365
246 371 256 14 27 11 54 -10 80 l-18 23 -799 37 c-439 21 -813 38 -830 39 -18
0 -41 -8 -52 -17z m938 -930 l29 -63 -630 0 -630 0 15 28 c7 15 21 44 29 65
l16 37 572 -2 571 -3 28 -62z m-1406 -710 c4 -47 12 -111 17 -141 6 -30 9 -56
7 -57 -11 -12 -86 18 -112 44 -28 29 -31 38 -34 111 -4 74 -2 81 22 104 17 18
36 26 59 26 l34 0 7 -87z m1471 15 c-37 -408 -221 -708 -521 -850 -59 -28 -80
-33 -144 -33 -66 0 -84 5 -150 36 -296 143 -478 442 -515 847 l-6 72 671 0
671 0 -6 -72z m241 46 c24 -23 26 -30 22 -104 -3 -73 -6 -82 -34 -111 -26 -26
-101 -56 -112 -44 -2 1 1 27 7 57 5 30 13 94 17 141 l7 87 34 0 c23 0 42 -8
59 -26z m-1066 -1046 c44 -18 75 -22 160 -22 85 0 116 4 160 22 30 12 56 22
58 22 9 0 0 -196 -12 -223 -70 -167 -342 -167 -412 0 -12 27 -21 223 -11 223
1 0 27 -10 57 -22z m230 -648 c38 -38 100 -90 139 -115 39 -25 71 -50 71 -55
0 -11 -130 -265 -161 -314 l-25 -39 -94 0 -94 0 -25 39 c-29 46 -161 302 -161
313 0 5 32 30 72 56 39 26 101 78 137 116 36 37 68 68 70 69 2 0 34 -31 71
-70z m9 -688 c59 -44 64 -137 10 -191 -76 -77 -202 -33 -215 75 -14 110 115
183 205 116z"/>
<path d="M2670 2860 c-29 -29 -30 -72 -3 -102 14 -16 38 -18 213 -18 175 0
199 2 213 18 27 30 26 73 -3 102 -19 19 -33 20 -210 20 -177 0 -191 -1 -210
-20z"/>
</g>
</svg>
